<svg xmlns="http://www.w3.org/2000/svg" width="1200" height="1200" viewBox="0 0 1200 1200">
  <defs>
    <linearGradient id="bg" x1="0" y1="0" x2="1" y2="1">
      <stop offset="0" stop-color="#f5fbfb"/>
      <stop offset="0.58" stop-color="#ffffff"/>
      <stop offset="1" stop-color="#e5f4f2"/>
    </linearGradient>
    <filter id="softShadow" x="-20%" y="-20%" width="140%" height="140%">
      <feDropShadow dx="0" dy="18" stdDeviation="18" flood-color="#0f3557" flood-opacity="0.16"/>
    </filter>
  </defs>
  <rect width="1200" height="1200" fill="url(#bg)"/>
  <rect x="58" y="58" width="1084" height="514" rx="34" fill="#ffffff" filter="url(#softShadow)"/>
  <rect x="58" y="58" width="1084" height="514" rx="34" fill="none" stroke="#d5e8e8" stroke-width="2"/>
  <circle cx="984" cy="184" r="132" fill="#6bc7c5" opacity="0.22"/>
  <circle cx="1048" cy="445" r="86" fill="#0f3557" opacity="0.08"/>
  <g transform="translate(98 98)">
    <rect width="82" height="82" rx="20" fill="#0f3557"/>
    <circle cx="58" cy="24" r="12" fill="#6bc7c5"/>
    <path d="M24 59V23h10l8 19 8-19h10v36H50V41l-6 15h-5l-6-15v18H24Z" fill="#ffffff"/>
  </g>
  <text x="98" y="235" fill="#0f3557" font-family="Inter, Manrope, Arial, sans-serif" font-size="64" font-weight="800">Dr. Manu Gautam</text>
  <text x="98" y="304" fill="#23475f" font-family="Inter, Manrope, Arial, sans-serif" font-size="36" font-weight="700">Orthopedic Surgeon in Noida &amp; Delhi NCR</text>
  <text x="98" y="372" fill="#435966" font-family="Inter, Manrope, Arial, sans-serif" font-size="28" font-weight="500">Joint Replacement • Robotic Knee Replacement</text>
  <text x="98" y="423" fill="#435966" font-family="Inter, Manrope, Arial, sans-serif" font-size="28" font-weight="500">Spine Care • Sports Injuries • Trauma Care • Rehabilitation</text>
  <g transform="translate(98 472)">
    <rect width="267" height="58" rx="29" fill="#0f3557"/>
    <text x="28" y="38" fill="#ffffff" font-family="Inter, Manrope, Arial, sans-serif" font-size="24" font-weight="700">Book Consultation</text>
  </g>
  <text x="402" y="510" fill="#0f3557" font-family="Inter, Manrope, Arial, sans-serif" font-size="24" font-weight="700">drmanugautam.com</text>
  <g transform="translate(844 194)" opacity="0.96">
    <path d="M118 0c65 0 118 53 118 118v136c0 65-53 118-118 118S0 319 0 254V118C0 53 53 0 118 0Z" fill="#eef8f7" stroke="#c6e2e1" stroke-width="4"/>
    <path d="M118 58c35 0 64 29 64 64v18h-28v-18c0-20-16-36-36-36s-36 16-36 36v18H54v-18c0-35 29-64 64-64Z" fill="#0f3557"/>
    <path d="M52 168h132v104c0 36-30 66-66 66s-66-30-66-66V168Z" fill="#ffffff" stroke="#0f3557" stroke-width="10"/>
    <path d="M118 200v96M70 248h96" stroke="#6bc7c5" stroke-width="18" stroke-linecap="round"/>
  </g>
</svg>
